<svg width="256" height="256" viewBox="0 0 245 245" preserveAspectRatio="xMidYMid" xmlns="http://www.w3.org/2000/svg">
  <defs>
    <rect id="boden" class="boden"
          x="-32" y="-32" width="64" height="64"/>
    <rect id="wallTop" class="wand"
          x="-32" y="-16" width="64" height="32"
          transform="translate(0,-32) skewX(45) translate(0,-16)"/>
    <path id="doorTop" class="wand"
          d="M0,-64l64,0,0,32,-8,0,0,-20q-16,-16,-48,0l0,20,-8,0z"
          transform="skewX(45)"/>
    <rect id="wallBottom" class="wand vorne"
          x="-32" y="-16" width="64" height="32"
          transform="translate(0,32) skewX(45) translate(0,-16)"/>
    <path id="doorBottom" class="wand vorne"
          d="M-64,0l64,0,0,32,-8,0,0,-20q-16,-16,-48,0l0,20,-8,0z"
          transform="skewX(45)"/>
    <rect id="wallLeft" class="wand"
          x="-16" y="-32" width="32" height="64"
          transform="translate(-32,0) skewY(45) translate(-16,0)"/>
    <rect id="wallRight" class="wand vorne"
          x="-16" y="-32" width="32" height="64"
          transform="translate(32,0) skewY(45) translate(-16,0)"/>
    <path id="doorRight" class="wand vorne"
          d="M0,-64l0,64,32,0,0,-8,-20,0q-16,-16,0,-48l20,0,0,-8z"
          transform="skewY(45)"/>
    <style>.wand{fill:gray;stroke:black;}.boden{fill:Sienna;stroke:black;}</style>
  </defs>
  <rect stroke="green" fill="#EEFFEE" x="0" y="0" width="245" height="245"></rect>
  <g class="maze" transform="translate(122,142) scale(1,0.9) rotate(45) translate(-32,-32)">
    <g transform="translate(0,0)">
      <g transform="translate(0,0)">
        <use href="#boden"></use>
        <use href="#wallTop"></use>
        <use href="#wallLeft"></use>
        <use href="#doorBottom"></use>
        <use href="#doorRight"></use>
      </g>
      <g transform="translate(64,0)">
        <use href="#boden"></use>
        <use href="#doorTop"></use>
        <use href="#wallBottom"></use>
        <use href="#wallRight"></use>
      </g>
    </g>
    <g transform="translate(0,64)">
      <g transform="translate(0,0)">
        <use href="#boden"></use>
        <use href="#wallLeft"></use>
        <use href="#wallBottom"></use>
        <use href="#doorRight"></use>
      </g>
      <g transform="translate(64,0)">
        <use href="#boden"></use>
        <use href="#doorBottom"></use>
        <use href="#wallRight"></use>
      </g>
    </g>
  </g>
</svg>