<!-- "Licensed to the Apache Software Foundation (ASF) under one or more contributor license agreements; and to You under the Apache License, Version 2.0. " -->
<svg viewBox="192 320 64 64" preserveAspectRatio="xMidYMid" xmlns="http://www.w3.org/2000/svg" part="mazeview" width="512" height="512"><defs><g id="boden" class="boden"><path d="M0 0h64.5v64.5H0z"/><path class="wall" d="M16 44h32v8H16z"/><path class="way" d="M16 12h32v32H16z"/></g><g id="doorRight"><path class="way" d="M47.5 16h18v24h-18z"/><path class="wall" d="M48 40h16v8H48z"/></g><g id="doorTop"><path class="way" d="M20 0h24v12.5H20z"/><path class="shadow" d="M12 0h8v12h-8zm0 12h4v8h-4z"/></g><g id="doorBottom"><path class="way" d="M20 43.5h24V64H20z"/><path d="M20 44v8h-4v-4zm-8 8h8v12h-8z" class="shadow"/></g><g id="boot" class="boat"><g class="boat" transform="translate(14 16)"><path id="bootBugH" d="M-4-8a8 12 90 0 0-8 4v4a8 12 90 0 1 8-4z"/><use href="#bootBugH" class="heller"/><use href="#bootBugH" class="boatline"/><g class="wood"><path id="bootBugM" d="M-4 2a8 12 90 0 1-8-4 8 12 90 0 1 8-4z"/></g><use href="#bootBugM" class="boatline"/><path id="bootBugV" d="M-4 4a8 12 90 0 1-8-4v-4a8 12 90 0 0 8 4z"/><use href="#bootBugV" class="boatgrad"/><use href="#bootBugV" class="boatline"/></g><g class="boat" transform="translate(14 16)"><path id="bootMidH" d="M-4-7H8v4H-4z"/><use href="#bootMidH" class="heller"/><use href="#bootMidH" class="boatline"/><path id="bootMidM" class="wood" d="M-4-5H8v8H-4z"/><use href="#bootMidM" class="boatline"/><path d="M8-6 7-5v8h1z" class="shadow"/><path id="bootMidV" d="M-4 1H8v3H-4z"/><use href="#bootMidV" class="heller"/><use href="#bootMidV" class="boatline"/></g><g class="boat" transform="translate(14 16)"><path id="bootAchtH" d="M8-8h4v4H8z"/><use href="#bootAchtH" class="heller"/><use href="#bootAchtH" class="boatline"/><g class="wood"><path id="bootAchtM" d="M8-6h4v8H8z"/></g><use href="#bootAchtM" class="boatline"/><path d="m12-8-2 2v8h2z" class="shadow"/><path id="bootAchtV" d="M8 0h4v4H8z"/><use href="#bootAchtV" class="heller"/><use href="#bootAchtV" class="boatline"/></g><path d="M.9-13-4 0M.9-13-4-8m7.1-5L8 0M3.1-13 8-8" transform="translate(14 16)" class="boatrope"/><g class="boat" transform="translate(14 16)"><path class="shadow" d="M-4-3h6v2h-6zm-5-1h5v2h-5z"/><path id="bootMast" d="M1-2a1 1 180 1 0 2 0v-12a1 1 180 1 0-2 0z"/><use href="#bootMast" class="boatgrad"/><circle id="bootMastTop" cx="2" cy="-14" r="1"/><use href="#bootMastTop" class="heller"/><use href="#bootMast" class="boatline"/><use href="#bootMastTop" class="boatline"/></g></g><g id="pilon" style="fill:Olive"><path class="shadow" d="M-2-1.5h2v3h-2z"/><path id="pilonbase" d="M-1.75-4v4a1.75 1.5 180 0 0 3.5 0v-4z"/><use href="#pilonbase" class="pilon3d"/><circle cx="0" cy="0" r="1.75" transform="matrix(1 0 0 .75 0 -4)"/><circle cx="0" cy="0" r="1.75" class="shadow" transform="matrix(1 0 0 .75 0 -4)"/></g><g id="ropeV" class="rope"><path d="M0 0v25"/><path class="mark" d="M0 1v24"/></g><g id="ropeHR" class="rope"><path d="M0 0q9 1 18 1"/><path d="M0 0q9 1 18 1" class="mark"/></g><g id="ropeVT" class="rope"><path d="M0 0v9"/><path class="mark" d="M0 1v8"/></g><g id="ropeVB" class="rope"><path d="M0 0v24"/><path class="mark" d="M0 1v23"/></g><symbol id="crate1" viewBox="-2 -1 8 8" width="8" height="8" class="crates"><path class="shadow" d="M-1 2h1v4h-1z"/><g id="crate" class="crates"><path class="front" d="M0 0h5v4H0z"/><path class="line" d="M0 1h5M0 2h5M0 3h5"/><path class="shadow" d="M.75 0H1v4H.75z"/><path d="M1-.1h.75V4H1z"/><path class="shadow" d="M1 3.9h.75V4H1zM3.1 0h.25v4H3.1z"/><path d="M3.35-.1h.75V4h-.75z"/><path class="shadow" d="M3.35 3.9h.75V4h-.75z"/><path d="M0 4h5v2H0z"/><path class="line" d="M0 4.66h5m-5 .67h5"/></g></symbol><symbol id="crates" viewBox="-2 -1 8 16" width="8" height="16" class="crates"><path class="shadow" d="M-1 2h1v4h-1z"/><use href="#crate"/><path class="shadow" d="M-.5 7.5h1v4h-1z"/><use href="#crate" transform="translate(.5 5.5)"/></symbol><symbol id="playerBBottom" viewBox="-4 -4 8 8" width="8" height="8" class="playerB"><path d="M-2.5.75h5v1.5h-5zM-3 1h.5v1.25H-3zm5.5 0H3v1.25h-.5z" class="shirt"/><g class="skin"><path d="M-3-2.75V0a1 1 90 0 0 1 1h4a1 1 90 0 0 1-1v-2.75z"/><circle cx="0" cy="-1" r=".25"/><rect x="-1" y="0" width="2" height=".25" rx=".25" fill="#000" stroke-width=".05"/></g><path d="M-2.5 2.25h5v.5h-5z" class="pants"/><path d="M-2.5 2.75H0v.5h-2.5zm2.5 0h2.5v.5H0z" class="shoes"/><g class="augen"><rect x="-1.5" y="-2" width=".5" height="1" rx=".25"/><rect x="1" y="-2" width=".5" height="1" rx=".25"/></g><path d="M-2.25-.75h-1v-1.5a1 1 90 0 1 1-1h4.5a1 1 90 0 1 1 1v1.5h-1v-1.5a.5.5 90 0 0-.5-.5h-3.5a.5.5 90 0 0-.5.5z" class="haare"/></symbol><symbol id="playerB-suedM" width="8" height="8" class="playerB"><path class="shadow" d="M0 6h2v1.5H0z"/><use href="#playerBBottom"/></symbol><symbol id="puddle1" viewBox="0 0 100 100" width="8" height="8"><path class="puddle" d="M27-32.4c5.7 5.1 6.6 15.7 5.8 24.6-.8 8.9-3.3 16.2-6.5 24.2-3.1 8.1-7 17-13.3 19.2-6.2 2.2-14.9-2.2-23.9-5.5-9-3.4-18.5-5.5-24.4-11.7-5.9-6.2-8.3-16.3-6.5-25.7 1.8-9.3 7.7-17.7 15.4-22.5 7.7-4.8 17-5.9 27-6.7 10-.7 20.6-1.1 26.4 4.1Z" width="100%" height="100%" transform="translate(50 50)" style="transition:0.3s" stroke-width="0"/></symbol><symbol id="puddle4" viewBox="0 0 100 100" width="8" height="8"><path class="puddle" d="M15.7-23.4c3.1 7.3 3.1 13.7 7 21.5 3.8 7.8 11.6 16.9 9.4 20.2C30 21.6 17.9 19 9 20.2c-8.9 1.2-14.7 6.2-18.2 5-3.5-1.3-4.7-8.9-5.9-14.6-1.1-5.8-2.2-9.8-2.5-14.7-.3-4.8.1-10.5 3.2-17.8 3-7.3 8.7-16.2 14.7-16.6 6-.3 12.3 7.9 15.4 15.1Z" width="100%" height="100%" transform="translate(50 50)" style="transition:0.3s" stroke-width="0"/></symbol><symbol id="rescue-stand" class="rescue" width="10" height="10" viewBox="-2 -4.5 10 10"><path class="shadow" d="M-2 4h6v1h-6zm.5 1h3v.5h-3z"/><path class="stand" d="M3.5-4h1v9h-1z"/><use href="#rescue-ring" transform="translate(1.33 -4.5)"/><path class="stand" d="M0 0h1v.5H0z" transform="translate(3.5 -3.85)"/><path class="standline" d="M0 0v.5h1V0" transform="translate(3.5 -3.85)"/></symbol><symbol id="rescue-ringOnly" class="rescue" width="10" height="10" viewBox="-1 0 10 10"><g transform="translate(-.5) scale(.66)" class="shadow"><path id="rescueRingShadow" d="M4 0a4 4 180 0 1 0 8V6.5a2.5 2.5 180 0 0 0-5z"/><use href="#rescueRingShadow" transform="matrix(-1 0 0 1 8 0)"/></g><g transform="rotate(-45 2.64 2.64) scale(.66)" id="rescue-ring" class="rescue"><path id="rescueRingPart" d="M4 0a4 4 90 0 1 4 4H6.5A2.5 2.5 90 0 0 4 1.5z"/><use href="#rescueRingPart" transform="rotate(90 4 4)" class="mark"/><use href="#rescueRingPart" transform="rotate(180 4 4)"/><use href="#rescueRingPart" transform="rotate(-90 4 4)" class="mark"/></g></symbol><pattern id="water" width="16" height="16" x="0" y="2" patternUnits="userSpaceOnUse"><path style="fill:RoyalBlue" d="M0 0h16v16H0z"/><g fill="none" stroke-linecap="round" stroke-width=".5"><g stroke="rgba(255,255,255,.1)"><use href="#water4wave1" transform="matrix(1 0 0 -1 8 3)"/><use href="#water4wave2" transform="translate(12 5)"/><use href="#water4wave2" transform="translate(-4 5)"/><g transform="translate(1 11)"><path id="water4wave2" d="M1 2q1-1 4-1 1 0 2-.5"/></g></g><g stroke="rgba(255,255,255,.05)"><path id="water4wave1" d="M1 1q1 1 4 1 1 0 2-.5"/><use href="#water4wave1" transform="translate(6 7.5)"/></g><g stroke="rgba(0,0,0,.05)"><use href="#water4wave2" transform="matrix(-1 0 0 1 6 8)"/><use href="#water4wave2" transform="matrix(-1 0 0 1 22 8)"/><use href="#water4wave1" transform="translate(4 3)"/><use href="#water4wave1" transform="translate(7 13)"/></g></g></pattern><pattern id="tiles" viewBox="0 0 32 32" width="16" height="16" patternUnits="userSpaceOnUse"><path style="fill:peru;stroke:none" d="M0 0h32v32H0z"/><g style="fill:rgba(255,255,255,.033)"><g id="tile"><rect x="1" y="1" width="6" height="6" rx="1"/><path d="M5.75 1.25a1 1 90 0 1 1 1v3.5a1 1 90 0 1-1 1" class="lightline thinline"/><path d="M2.25 1.25a1 1 90 0 0-1 1v3.5a1 1 90 0 0 1 1" style="stroke:rgba(0,0,0,.05)" class="thinline shadowline"/></g><use href="#tile" transform="translate(8)"/><use href="#tile" transform="translate(16 24)"/><use href="#tile" transform="translate(24 16)"/><use href="#tile" transform="translate(8 8)"/><use href="#tile" transform="translate(24 24)"/><g style="fill:rgba(255,255,255,.066)"><use href="#tile" transform="translate(16 16)"/><use href="#tile" transform="translate(24)"/><use href="#tile" transform="translate(0 8)"/><use href="#tile" transform="translate(8 24)"/></g><g style="fill:rgba(255,255,255,0)"><use href="#tile" transform="translate(16)"/><use href="#tile" transform="translate(16 8)"/><use href="#tile" transform="translate(24 8)"/><use href="#tile" transform="translate(0 16)"/><use href="#tile" transform="translate(8 16)"/><use href="#tile" transform="translate(0 24)"/></g></g></pattern><pattern id="bricks" viewBox="0 -.5 16 8" width="8" height="4" patternUnits="userSpaceOnUse"><g style="fill:FireBrick;stroke:none"><path d="M0-1h16v17H0z"/><path class="shadow" d="M0-1h16v17H0z"/><path d="M0 0h7v3H0zm8 0h7v3H8z"/><path style="fill:rgba(255,255,255,.1)" d="M8 0h7v3H8z"/><path d="M-4 4h7v3h-7zm16 0h7v3h-7z"/><path d="M.25 0v3m8-3v3m-4 1v3m8-3v3" class="shadowline"/><path d="M6.75 0v3m8-3v3m-12 1v3m8-3v3" class="lightline"/></g></pattern><pattern class="boat" id="boatWood" viewBox="0 0 16 16" width="2" height="2" patternUnits="userSpaceOnUse"><path d="M0 0h16v16H0z"/><path d="M0 0v16M0 4h8m0-4v16m0-4h8" class="shadowline"/></pattern><linearGradient id="boat-bugschatten"><stop offset="0%" style="stop-color:rgba(0,0,0,.05)"/><stop offset="100%" style="stop-color:rgba(255,255,255,.1)"/></linearGradient><linearGradient id="boat-bugschatten1"><stop offset="0%" style="stop-color:rgba(255,255,255,.1)"/><stop offset="100%" style="stop-color:rgba(0,0,0,.05)"/></linearGradient><linearGradient id="pile_rundschatten"><stop offset="0%" style="stop-color:rgba(0,0,0,.05)"/><stop offset="100%" style="stop-color:rgba(255,255,255,.1)"/></linearGradient><path class="shadow" d="M8 20h8v32H8z" id="wallLeft"/><path d="M-2-1.5v3h-3a1 1.5 180 1 1 0-3z" class="shadow" id="pilonShadow"/><style id="topdownDefs">.shadow{fill:rgba(0,0,0,.1);stroke:none}.light{fill:rgba(255,255,255,.1);stroke:none}.lightline{stroke:rgba(255,255,255,.01)}.boden{fill:url(#water);stroke:none}.waterwaves{fill:none;stroke:rgba(255,255,255,.15);stroke-width:2}.waterwavesD{fill:none;stroke:rgba(255,255,255,.25);stroke-width:2}.way{fill:url(#tiles);stroke:none}.lightline{stroke:rgba(255,255,255,.05);stroke-width:1px;fill:none}.shadowline{stroke:rgba(0,0,0,.2);stroke-width:1px;fill:none}.thinline{stroke-width:.5px;stroke-linecap:round}.wall{fill:url(#bricks)}.boat{fill:#8c4827;stroke:none;.wood{fill:url(#boatWood);stroke:none;}.boatline{fill:none;stroke:SaddleBrown;stroke-width:.25px;stroke-linejoin:bevel;}.boatgrad{fill:url(#boat-bugschatten);stroke:none;}.boatgrad1{fill:url(#boat-bugschatten1);stroke:none;}.boatrope{fill:none;stroke:tan;stroke-width:.2px;stroke-linecap:round;}.shadow{fill:rgba(0,0,0,.1);stroke:none;}.shadowline{stroke:rgba(0,0,0,.2);stroke-width:1;fill:none;}.heller{fill:rgba(255,255,255,.05);stroke:none;}}.crates{fill:sienna;.line{fill:none;stroke:rgba(0,0,0,.1);stroke-width:.1px;}.shadow{fill:rgba(0,0,0,.1);stroke:none;}.front{fill:Chocolate}}.playerB{fill:#FFD321;stroke:#B18904;stroke-width:.25px;.shadow{fill:rgba(0,0,0,.1);stroke:none;}.augen{fill:black;stroke:whitesmoke;}.haare{fill:#6baddf;stroke:#4a799c;}.shirt{fill:#addf6b;}.pants{fill:#6b73df;}.shoes{fill:#8A4B08}}.puddle{fill:SteelBlue;stroke:DodgerBlue;opacity:.25;stroke-width:3}.rescue{fill:Crimson;.mark{fill:Linen;}.standline{stroke-width:.05px;stroke:indigo;fill:none;}.stand{fill:saddlebrown;}.shadow{fill:rgba(0,0,0,.1);stroke:none;}}.rope{stroke:Goldenrod;stroke-width:1.25;fill:none;.mark{stroke:rgba(0,0,0,.2);stroke-width:1;stroke-dasharray:.25 2;}}</style></defs><g class="maze"><g transform="translate(192 320)"><use href="#boden" class="boden tile"/><use href="#doorTop" class="doorTop tile"/><use href="#wallLeft" class="wallLeft tile"/><use href="#doorRight" class="doorRight tile"/><use href="#doorBottom" class="doorBottom tile"/><use href="#ropeVT" transform="translate(46)"/><use href="#ropeVT" transform="translate(18)"/><use href="#puddle4" transform="translate(35)"/><use href="#puddle1" transform="translate(52 18)"/><use href="#ropeHR" transform="translate(46 11)"/><use href="#pilonShadow" transform="translate(10 22)"/><use href="#pilonShadow" transform="translate(46 14)"/><use href="#pilon" transform="translate(18 14)"/><use href="#pilon" transform="translate(46 14)"/><use href="#rescue-stand" transform="translate(34.5 9)"/><use href="#crates" transform="translate(18 24)"/><use href="#ropeV" transform="translate(18 12)"/><use href="#ropeHR" transform="translate(46 39)"/><use href="#pilonShadow" transform="translate(46 42)"/><use href="#pilonShadow" transform="translate(10 50)"/><use href="#pilon" transform="translate(46 42)"/><use href="#pilon" transform="translate(18 42)"/><use href="#ropeVB" transform="translate(46 40)"/><use href="#ropeVB" transform="translate(18 40)"/><use href="#decke" class="decke tile" style="--doorLeft:none"/></g><use href="#boot" transform="matrix(1.5 0 0 1.5 242 298)"/></g><use id="playerCharacter" href="#playerB-suedM" x="220" y="344"/></svg>