<!-- "Licensed to the Apache Software Foundation (ASF) under one or more contributor license agreements; and to You under the Apache License, Version 2.0. " -->
<svg width="512" preserveAspectRatio="xMidYMid" xmlns="http://www.w3.org/2000/svg" part="mazeview" viewBox="0 64 64 64" height="512"><defs><g id="boden" class="boden"><path d="M0 0h64.5v64.5H0z"/><path class="wall" d="M16 44h32v8H16z"/><path class="way" d="M16 12h32v32H16z"/></g><g id="wallLeft"><path class="shadow" d="M8 20h8v32H8z"/><use href="#pilonShadow" transform="translate(10 22)"/></g><g id="doorRight"><g style="visibility:var(--floor)"><path class="way" d="M48 16h16v24H48z"/><path d="M46 11q9 1 18 1" class="rope"/><path d="M46 11q9 1 18 1" class="ropemark"/><path class="wall" d="M48 40h16v8H48z"/></g><g style="visibility:var(--sky)"><path d="M46 39q9 1 18 1" class="rope"/><path d="M46 39q9 1 18 1" class="ropemark"/></g></g><g id="doorTop"><path class="way" d="M20 0h24v12H20z"/><path class="shadow" d="M12 0h8v12h-8zM12 12h4v8h-4z"/><path class="rope" d="M18 0v9"/><path class="ropemark" d="M18 0v9"/><path class="rope" d="M46 0v9"/><path class="ropemark" d="M46 0v9"/></g><g id="doorBottom"><path class="way" d="M20 44h24v20H20z"/><path d="M20 44v8h-4v-4zM12 52h8v12h-8z" class="shadow"/></g><g id="decke"><g transform="translate(18 14)"><g id="pilon"><path class="shadow" d="M-2-1.5h2v3h-2z"/><circle cx="0" cy="0" r="1.75" class="pilon" transform="scale(1 .75)"/><path class="pilon" d="M-1.75-4h3.5v4h-3.5z"/><circle cx="0" cy="0" r="1.75" class="pilon" transform="matrix(1 0 0 .75 0 -4)"/><circle cx="0" cy="0" r="1.75" class="shadow" transform="matrix(1 0 0 .75 0 -4)"/></g><g transform="translate(0 -2.5)" style="visibility:var(--ropeLeft)"><g id="ropeSide"><path class="rope" d="M0 0v27"/><path class="ropemark" d="M0 0v27"/></g></g></g><g transform="translate(18 42)"><use href="#pilon"/><use href="#pilonShadow" transform="translate(-8 8)"/></g><g transform="translate(46 14)" class="shadow"><path d="M-2-1.5v3h-3a1 1.5 180 1 1 0-3z" class="shadow" id="pilonShadow"/><use href="#pilon"/><use href="#ropeSide" transform="translate(0 -2.5)" style="visibility:var(--ropeRight)"/></g><g transform="translate(46 42)"><use href="#pilon"/><use href="#pilonShadow"/></g><g style="visibility:var(--ropeBottom)"><path class="rope" d="M18 39.5V64"/><path class="ropemark" d="M18 39.5V64"/><path class="rope" d="M46 39.5V64"/><path class="ropemark" d="M46 39.5V64"/></g></g><g transform="translate(12 16)" id="boot-1" class="boat"><g class="boat"><path id="boot1BugH" d="M6-8a8 12 90 0 1 8 4v4a8 12 90 0 0-8-4z"/><use href="#boot1BugH" class="boatgrad1"/><use href="#boot1BugH" class="boatline"/><g class="wood"><path id="boot1BugM" d="M6 2a8 12 90 0 0 8-4 8 12 90 0 0-8-4z"/></g><use href="#boot1BugM" class="boatline"/><path class="shadow" d="M6-6a8 12 90 0 1 8 4V.5A8 12 90 0 0 6-6z"/><path id="boot1BugV" d="M6 4a8 12 90 0 0 8-4v-4a8 12 90 0 1-8 4z"/><use href="#boot1BugV" class="heller"/><use href="#boot1BugV" class="boatline"/></g><g class="boat"><path id="boot1MidH" d="M-6-7H6v4H-6z"/><use href="#boot1MidH" class="heller"/><use href="#boot1MidH" class="boatline"/><path id="boot1MidM" class="wood" d="M-6-5H6v8H-6z"/><use href="#boot1MidM" class="boatline"/><path d="M6-6 5-5v8h1z" class="shadow"/><path id="boot1MidV" d="M-6 1H6v3H-6z"/><use href="#boot1MidV" class="heller"/><use href="#boot1MidV" class="boatline"/></g><g class="boat"><path id="boot1AchtH" d="M-10-8h4v4h-4z"/><use href="#boot1AchtH" class="heller"/><use href="#boot1AchtH" class="boatline"/><g class="wood"><path id="boot1AchtM" d="M-10-6h4v8h-4z"/></g><use href="#boot1AchtM" class="boatline"/><path id="boot1AchtV" d="M-10 0h4v4h-4z"/><use href="#boot1AchtV" class="heller"/><use href="#boot1AchtV" class="boatline"/><path class="shadow" d="M-12-4h2v8h-2z"/></g><g class="boatrope"><path d="M-1.1-13-6 0M-1.1-13-6-8M1.1-13 6 0M1.1-13 6-8"/></g><g class="boat"><path class="shadow" d="M-6-3H.5v2H-6zM-10-4h4v2h-4z"/><path id="boot1Mast" d="M-1-2a1 1 180 1 0 2 0v-12a1 1 180 1 0-2 0z"/><use href="#boot1Mast" class="boatgrad"/><circle id="boot1MastTop" cx="0" cy="-14" r="1"/><use href="#boot1MastTop" class="heller"/><use href="#boot1Mast" class="boatline"/><use href="#boot1MastTop" class="boatline"/></g></g><g id="vine-string1" class="vine"><path class="wood" d="M0 0v2l1 3-.5 3"/><g transform="rotate(23 -4.915 1)"><path d="M0 0a1 .5 180 1 1 2 0 1 .5 180 1 1-2 0z" id="vine-leaf"/></g><use href="#vine-leaf" transform="rotate(157 -.203 1)"/><use href="#vine-leaf" transform="rotate(23 -11.788 4.958)"/><use href="#vine-leaf" transform="rotate(157 -.009 2.602)"/></g><g id="vine-string2" class="vine"><path class="wood" d="M0 0v1.5l-1 2L0 6l-.5 2"/><use href="#vine-leaf" transform="rotate(23 -3.686 .75)"/><use href="#vine-leaf" transform="rotate(157 -.153 .75)"/><use href="#vine-leaf" transform="rotate(23 -9.102 -.708)"/><use href="#vine-leaf" transform="rotate(157 -.856 1.648)"/><use href="#vine-leaf" transform="rotate(23 -14.745 3)"/><use href="#vine-leaf" transform="rotate(157 -.61 3)"/></g><g transform="rotate(-45 2.64 2.64) scale(.66)" id="rescue-ring" class="rescue"><path id="rescueRingPart" d="M4 0a4 4 90 0 1 4 4H6.5A2.5 2.5 90 0 0 4 1.5z"/><use href="#rescueRingPart" transform="rotate(90 4 4)" class="mark"/><use href="#rescueRingPart" transform="rotate(180 4 4)"/><use href="#rescueRingPart" transform="rotate(-90 4 4)" class="mark"/></g><pattern id="water" viewBox="0 0 16 16" width="8" height="8" x="0" y="2" patternUnits="userSpaceOnUse"><path style="fill:RoyalBlue" d="M0 0h16v16H0z"/><g style="fill:none;stroke:rgba(255,255,255,.15);stroke-width:2"><path d="M0 7s2 0 4-3 2-3 4-3 2 0 4 3 2 3 4 3M0 15s2 0 4-3 2-3 4-3 2 0 4 3 2 3 4 3"/></g></pattern><pattern id="tiles" viewBox="0 0 8 8" width="4" height="4" patternUnits="userSpaceOnUse"><path style="fill:peru;stroke:none" d="M0 0h8v8H0z"/><rect id="tile" x="1" y="1" width="6" height="6" rx="1" style="fill:rgba(255,255,255,.05)"/></pattern><pattern id="bricks" viewBox="0 0 16 16" width="8" height="8" patternUnits="userSpaceOnUse"><path style="fill:FireBrick;stroke:none" d="M0 0h16v16H0z"/><g class="shadowline"><path d="M0 8h16M0 4h16M0 12h16M0 16h16M8 0v4M8 8v4M4 4v4M4 12v4M12 0v4M12 8v4M16 4v4M16 12v4"/></g></pattern><pattern class="boat" id="boatWood" viewBox="0 0 16 16" width="2" height="2" patternUnits="userSpaceOnUse"><path d="M0 0h16v16H0z"/><g class="shadowline"><path d="M0 0v16M0 4h8M8 0v16M8 12h8"/></g></pattern><symbol id="grate1" viewBox="-4 -1 8 8" width="16" height="8" style="fill:sienna"><path class="shadow" d="M-1 2h1v4h-1z"/><path class="front" d="M0 0h5v4H0z" style="fill:chocolate"/><path class="line" d="M0 1h5M0 2h5M0 3h5"/><path class="shadow" d="M.75 0H1v4H.75z"/><path d="M1-.1h.75V4H1z"/><path class="shadow" d="M1 3.9h.75V4H1zM3.1 0h.25v4H3.1z"/><path d="M3.35-.1h.75V4h-.75z"/><path class="shadow" d="M3.35 3.9h.75V4h-.75z"/><path d="M0 4h5v2H0z"/><path class="line" d="M0 4.66h5M0 5.33h5"/></symbol><symbol id="vinesSingle"><use href="#vine-string2" transform="translate(3)"/><use href="#vine-string1" transform="translate(6)"/></symbol><symbol id="rescue-stand" class="rescue" width="10" height="10" viewBox="-2 -4.5 10 10"><path class="shadow" d="M-2 4h6v1h-6zM-1.5 5h3v.5h-3z"/><path class="stand" d="M3.5-4h1v9h-1z"/><use href="#rescue-ring" transform="translate(1.33 -4.5)"/><g transform="translate(3.5 -3.85)"><path class="stand" d="M0 0h1v.5H0z"/><path class="standline" d="M0 0v.5h1V0"/></g></symbol><linearGradient id="boat-bugschatten"><stop offset="0%" style="stop-color:rgba(0,0,0,.05)"/><stop offset="100%" style="stop-color:rgba(255,255,255,.1)"/></linearGradient><linearGradient id="boat-bugschatten1"><stop offset="0%" style="stop-color:rgba(255,255,255,.1)"/><stop offset="100%" style="stop-color:rgba(0,0,0,.05)"/></linearGradient><style id="colors">svg{--waybg-col:green;--ropeLeft:hidden;--ropeRight:visible;--ropeBottom:visible;--sky:visible;--floor:visible}.boden{fill:url(#water);stroke:none}.bodenc{fill:blue;stroke:none}.way{fill:url(#tiles);stroke:none}.wall{fill:url(#bricks)}.pilon{fill:Olive;z-index=1;}.rope{stroke:Goldenrod;stroke-width:1.25;fill:none}.ropemark{stroke:rgba(0,0,0,.2);stroke-width:1;fill:none;stroke-dasharray:.25 2}.wallBottom~.decke{--ropeBottom:hidden}.shadowline{stroke:rgba(0,0,0,.2);stroke-width:1;fill:none}.shadow{fill:rgba(0,0,0,.1);stroke:none}.boat{fill:#8c4827;stroke:none;.wood{fill:url(#boatWood);stroke:none;}.boatline{fill:none;stroke:SaddleBrown;stroke-width:.25px;stroke-linejoin:bevel;}.boatgrad{fill:url(#boat-bugschatten);stroke:none;}.boatgrad1{fill:url(#boat-bugschatten1);stroke:none;}.boatrope{fill:none;stroke:tan;stroke-width:.2px;stroke-linecap:round;}.shadow{fill:rgba(0,0,0,.1);stroke:none;}.shadowline{stroke:rgba(0,0,0,.2);stroke-width:1;fill:none;}.heller{fill:rgba(255,255,255,.05);stroke:none;}}.vine{fill:darkgreen;stroke:green;stroke-width:.25px;.wood{fill:none;stroke:SaddleBrown;stroke-width:1px;}}.rescue{fill:Crimson;.mark{fill:Linen;}.standline{stroke-width:.05px;stroke:indigo;fill:none;}.stand{fill:saddlebrown;}.shadow{fill:rgba(0,0,0,.1);stroke:none;}}</style><svg width="8" height="8" viewBox="0 0 100 100" xmlns="http://www.w3.org/2000/svg" id="puddle4"><path d="M15.7-23.4c3.1 7.3 3.1 13.7 7 21.5 3.8 7.8 11.6 16.9 9.4 20.2C30 21.6 17.9 19 9 20.2c-8.9 1.2-14.7 6.2-18.2 5-3.5-1.3-4.7-8.9-5.9-14.6-1.1-5.8-2.2-9.8-2.5-14.7-.3-4.8.1-10.5 3.2-17.8 3-7.3 8.7-16.2 14.7-16.6 6-.3 12.3 7.9 15.4 15.1Z" width="100%" height="100%" transform="translate(50 50)" style="transition:0.3s;fill:SteelBlue;stroke:DodgerBlue;opacity:.25;stroke-width:3" stroke-width="0"/></svg></defs><g class="maze"><g transform="translate(0 64)"><use href="#boden" class="boden"/><use href="#doorTop" class="doorTop"/><use href="#wallLeft" class="wallLeft"/><use href="#grate1" transform="translate(12 24)"/><use href="#doorRight" class="doorRight" style="--sky:hidden"/><use href="#vinesSingle" transform="translate(48 40)"/><use href="#doorRight" class="doorRight" style="--floor:hidden"/><use href="#puddle4" transform="translate(52 18)"/><use href="#doorBottom" class="doorBottom"/><use href="#decke" class="decke" style="--ropeRight:hidden;--ropeLeft:visible"/><use href="#rescue-stand" transform="translate(35 10)"/></g><use href="#boot-1" transform="matrix(1.5 0 0 1.5 50 106)"/></g></svg>