<svg width="128" height="128" viewBox="0 0 32 32" xmlns="http://www.w3.org/2000/svg">
  <defs>
    <pattern id="bricks" viewBox="0,0,16,8" width="8" height="4" patternUnits="userSpaceOnUse">
      <g class="bricks">
        <rect x="0" y="0" width="16" height="16"/>
        <rect x="0" y="0" width="16" height="16" class="shadow"/>
        <rect x="0" y="0" width="7" height="3"/>
        <rect x="8" y="0" width="7" height="3"/>
        <rect x="-4" y="4" width="7" height="3"/>
        <rect x="4" y="4" width="7" height="3"/>
        <rect x="12" y="4" width="7" height="3"/>
        <g class="shadowline">
          <path d="M.25,0v3"/>
          <path d="M8.25,0v3"/>
          <path d="M4.25,4v3"/>
          <path d="M12.25,4v3"/>
        </g>
        <g class="lightline">
          <path d="M6.75,0v3"/>
          <path d="M14.75,0v3"/>
          <path d="M2.75,4v3"/>
          <path d="M10.75,4v3"/>
        </g>
      </g>
    </pattern>
      <g class="shadowline">
        <line x1="0" y1="8" x2="16" y2="8"/>
        <line x1="0" y1="4" x2="16" y2="4"/>
        <line x1="0" y1="12" x2="16" y2="12"/>
        <line x1="0" y1="16" x2="16" y2="16"/>
        <line x1="8" y1="0" x2="8" y2="4"/>
        <line x1="8" y1="8" x2="8" y2="12"/>
        <line x1="4" y1="4" x2="4" y2="8"/>
        <line x1="4" y1="12" x2="4" y2="16"/>
        <line x1="12" y1="0" x2="12" y2="4"/>
        <line x1="12" y1="8" x2="12" y2="12"/>
        <line x1="16" y1="4" x2="16" y2="8"/>
        <line x1="16" y1="12" x2="16" y2="16"/>
      </g>
    <style id="wallDefs">
      .wall{fill:url(#bricks);}
      .bricks{
        fill:FireBrick;
        stroke:none;
        .wallbg{;}
        .lightline{stroke:rgba(255,255,255,.1);stroke-width:.5;fill:none;}
        .shadowline{stroke:rgba(0,0,0,.2);stroke-width:.5;fill:none;}
        .shadow{fill:rgba(0,0,0,.1);stroke:none;}
      }
    </style>
  </defs>
  <rect x="0" y="0" width="32" height="32" class="wall"/>
</svg>