<?xml version="1.0" encoding="utf-8"?>
<!--
Copyright 2024 nigjo.

Licensed under the Apache License, Version 2.0 (the "License");
you may not use this file except in compliance with the License.
You may obtain a copy of the License at

     http://www.apache.org/licenses/LICENSE-2.0

Unless required by applicable law or agreed to in writing, software
distributed under the License is distributed on an "AS IS" BASIS,
WITHOUT WARRANTIES OR CONDITIONS OF ANY KIND, either express or implied.
See the License for the specific language governing permissions and
limitations under the License.
-->
<svg width="128" height="128" viewBox="0 0 32 32" xmlns="http://www.w3.org/2000/svg">
  <defs>
    <pattern id="tiles" viewBox="0,0,32,32" width="16" height="16" patternUnits="userSpaceOnUse">
      <rect x="0" y="0" width="32" height="32" class="waybg"/>
      <g class="waytile">
        <g id="tile">
          <rect x="1" y="1" width="6" height="6" rx="1"/>
          <path d="M5.75,1.25a1,1,90,0,1,1,1v3.5a1,1,90,0,1,-1,1" class="lightline thinline"/>
          <path d="M2.25,1.25a1,1,90,0,0,-1,1v3.5a1,1,90,0,0,1,1" class="shadowline thinline"/>
        </g>
        <use href="#tile" transform="translate(8,0)"/>
        <use href="#tile" transform="translate(16,24)"/>
        <use href="#tile" transform="translate(24,16)"/>
        <use href="#tile" transform="translate(8,8)"/>
        <use href="#tile" transform="translate(24,24)"/>
        <g class="waytile2">
          <use href="#tile" transform="translate(16,16)"/>
          <use href="#tile" transform="translate(24,0)"/>
          <use href="#tile" transform="translate(0,8)"/>
          <use href="#tile" transform="translate(8,24)"/>
        </g>
        <g class="waytile3">
          <use href="#tile" transform="translate(16,0)"/>
          <use href="#tile" transform="translate(16,8)"/>
          <use href="#tile" transform="translate(24,8)"/>
          <use href="#tile" transform="translate(0,16)"/>
          <use href="#tile" transform="translate(8,16)"/>
          <use href="#tile" transform="translate(0,24)"/>
        </g>
      </g>
      <!--<use href="#tile" transform="translate(24,8)"/>-->
    </pattern>
    <style id="wayDefs">
      .waytile{fill:rgba(255,255,255,.033);}
      .waytile2{fill:rgba(255,255,255,.066);}
      .waytile3{fill:rgba(255,255,255,0);}
      .way{fill:url(#tiles);stroke:none;}
      .waybg{fill:peru;stroke:none;}
      .lightline{stroke:rgba(255,255,255,.05);stroke-width:1px;fill:none;}
      .shadowline{stroke:rgba(0,0,0,.2);stroke-width:1px;fill:none;}
      .thinline{stroke-width:.5px;stroke-linecap:round;}
      .shadowline.thinline{stroke:rgba(0,0,0,.05)}
    </style>
  </defs>
  <rect x="0" y="0" width="32" height="32" class="way"/>
</svg>