<svg width="128" height="128" viewBox="0 0 32 32" xmlns="http://www.w3.org/2000/svg">
  <defs>
    <pattern id="bricks" viewBox="0,0,16,16" width="8" height="8" patternUnits="userSpaceOnUse">
      <rect x="0" y="0" width="16" height="16" class="wallbg"/>
      <g class="shadowline">
        <line x1="0" y1="8" x2="16" y2="8"/>
        <line x1="0" y1="4" x2="16" y2="4"/>
        <line x1="0" y1="12" x2="16" y2="12"/>
        <line x1="0" y1="16" x2="16" y2="16"/>
        <line x1="8" y1="0" x2="8" y2="4"/>
        <line x1="8" y1="8" x2="8" y2="12"/>
        <line x1="4" y1="4" x2="4" y2="8"/>
        <line x1="4" y1="12" x2="4" y2="16"/>
        <line x1="12" y1="0" x2="12" y2="4"/>
        <line x1="12" y1="8" x2="12" y2="12"/>
        <line x1="16" y1="4" x2="16" y2="8"/>
        <line x1="16" y1="12" x2="16" y2="16"/>
      </g>
    </pattern>
    <style>
      .wallbg{fill:FireBrick;stroke:none;}
      .wall{fill:url(#bricks);}
      .shadowline{stroke:rgba(0,0,0,.2);stroke-width:1;fill:none;}
    </style>
  </defs>
  <rect x="0" y="0" width="32" height="32" class="wall"/>
</svg>