<svg width="320" height="320" viewBox="0 0 320 320" xmlns="http://www.w3.org/2000/svg">
  <defs>
    <rect id="boden" class="boden"
          x="-32" y="-32" width="64" height="64"/>
    <rect id="wallTop" class="wand"
          x="-32" y="-16" width="64" height="32"
          transform="translate(0,-32) skewX(45) translate(0,-16)"/>
    <path id="doorTop" class="wand"
          d="M0,-64l64,0,0,32,-8,0,0,-20q-16,-16,-48,0l0,20,-8,0z"
          transform="skewX(45)"/>
    <rect id="wallBottom" class="wand vorne"
          x="-32" y="-16" width="64" height="32"
          transform="translate(0,32) skewX(45) translate(0,-16)"/>
    <path id="doorBottom" class="wand vorne"
          d="M-64,0l64,0,0,32,-8,0,0,-20q-16,-16,-48,0l0,20,-8,0z"
          transform="skewX(45)"/>
    <rect id="wallLeft" class="wand"
          x="-16" y="-32" width="32" height="64"
          transform="translate(-32,0) skewY(45) translate(-16,0)"/>
    <path id="doorLeft" class="wand"
          d="M-64,0l0,64,32,0,0,-8,-20,0q-16,-16,0,-48l20,0,0,-8z"
          transform="skewY(45)"/>
    <rect id="wallRight" class="wand vorne"
          x="-16" y="-32" width="32" height="64"
          transform="translate(32,0) skewY(45) translate(-16,0)"/>
    <path id="doorRight" class="wand vorne"
          d="M0,-64l0,64,32,0,0,-8,-20,0q-16,-16,0,-48l20,0,0,-8z"
          transform="skewY(45)"/>
    <style>
      .boden{fill:silver;stroke:DimGray;}
      .wand{fill:IndianRed;stroke:FireBrick;}
    </style>
  </defs>

  <g transform="translate(64,96) scale(1,.9) rotate(45)">
    <g transform="translate(32,-96)">
      <use href="#boden"/>
      <use href="#wallBottom"/>
      <use href="#wallRight"/>
    </g>
    <g transform="translate(32,-32)">
      <use href="#boden"/>
    </g>
    <g transform="translate(32,32)">
      <use href="#boden"/>
      <use href="#wallTop"/>
      <use href="#wallLeft"/>
    </g>
    <g transform="translate(96,-96)">
      <use href="#boden"/>
    </g>
    <g transform="translate(96,-32)">
      <use href="#boden"/>
    </g>
    <g transform="translate(96,32)">
      <use href="#boden"/>
    </g>
    <g transform="translate(160,-96)">
      <use href="#boden"/>
      <use href="#doorBottom"/>
      <use href="#doorRight"/>
    </g>
    <g transform="translate(160,-32)">
      <use href="#boden"/>
    </g>
    <g transform="translate(160,32)">
      <use href="#boden"/>
      <use href="#doorTop"/>
      <use href="#doorLeft"/>
    </g>
  </g>
</svg>
