<svg xmlns="http://www.w3.org/2000/svg"
     viewBox="0 0 320 320" width="320" height="320">
  <defs>
    <pattern id="cracked" width="32" height="32" patternUnits="userSpaceOnUse">
      <g class="cracked" stroke="white" stroke-width="2" fill="none" >
        <rect x="0" y="0" width="32" height="32" stroke="none"/>
        <line x1="0" y1="10" x2="20" y2="24"/>
        <line x1="16" y1="21" x2="12" y2="32"/>
        <line x1="16" y1="21" x2="12" y2="0"/>
        <line x1="0" y1="4" x2="12" y2="0"/>
        <line x1="20" y1="24" x2="32" y2="42"/>
        <line x1="32" y1="10" x2="20" y2="-8"/>
        <line x1="32" y1="4" x2="28" y2="4"/>
        <line x1="32" y1="10" x2="20" y2="24"/>
      </g>
    </pattern>
    <g id="room">
      <circle cx="0" cy="0" r="16"/>
      <!--<path d="M0,-16Q8,-12,8,-8T16,8T0,16T-16,-8"/>-->
    </g>
    <style id="grafh_defs">
.knot {
  fill:blue;
  stroke:none;
}
.edge1 {
  fill:none;
  stroke:red;
  stroke-width:2
}
.edge {
  fill:none;
  stroke:gray;
  stroke-width:2
}
.way {
  stroke:red;
}
.bg{
  fill:white;
}
svg.dungeon {
  background-color:SaddleBrown;
  .bg {
    fill:url(#cracked);
    fill-opacity:.05
  }
  path.edge,
  line {
    stroke:Peru;
    stroke-width:14px;
    stroke-linecap:round;
  }
  .knot {
    fill:Peru;
  }
  .cracked line {
    stroke:white;
    stroke-width: 2px;
  }
}
    </style>
  </defs>
  <rect x="0" y="0" width="100%" height="100%" fill="silver"/>
  <rect x="0" y="0" width="100%" height="100%" fill="url(#cracked)"/>
  <g transform="translate(160,160)">
    <use href="#room"/>
  </g>
</svg>
