<?xml version="1.0" encoding="utf-8"?>
<svg version="1.1" width="320" height="320" viewBox="0 0 320 320" xmlns="http://www.w3.org/2000/svg">
  <defs>
    <pattern id="water" viewBox="0,0,16,16" width="8" height="8"
        x="0" y="2" patternUnits="userSpaceOnUse">
      <rect x="0" y="0" width="16" height="16" class="waterbg"/>
      <g class="waterwaves">
        <path d="M0,7s2,0,4,-3,2,-3,4,-3,2,0,4,3,2,3,4,3"/>
        <path d="M0,15s2,0,4,-3,2,-3,4,-3,2,0,4,3,2,3,4,3"/>
      </g>
    </pattern>
    <pattern id="tiles" viewBox="0,0,8,8" width="4" height="4" patternUnits="userSpaceOnUse">
      <rect x="0" y="0" width="8" height="8" class="waybg"/>
      <rect id="tile" x="1" y="1" width="6" height="6" rx="1" class="waytile"/>
    </pattern>
    <pattern id="bricks" viewBox="0,0,16,16" width="8" height="8" patternUnits="userSpaceOnUse">
      <rect x="0" y="0" width="16" height="16" class="wallbg"/>
      <g class="shadowline">
        <line x1="0" y1="8" x2="16" y2="8"/>
        <line x1="0" y1="4" x2="16" y2="4"/>
        <line x1="0" y1="12" x2="16" y2="12"/>
        <line x1="0" y1="16" x2="16" y2="16"/>
        <line x1="8" y1="0" x2="8" y2="4"/>
        <line x1="8" y1="8" x2="8" y2="12"/>
        <line x1="4" y1="4" x2="4" y2="8"/>
        <line x1="4" y1="12" x2="4" y2="16"/>
        <line x1="12" y1="0" x2="12" y2="4"/>
        <line x1="12" y1="8" x2="12" y2="12"/>
        <line x1="16" y1="4" x2="16" y2="8"/>
        <line x1="16" y1="12" x2="16" y2="16"/>
      </g>
    </pattern>
    <g id="boden" class="boden">
      <rect x="0" y="0" width="64.5" height="64.5"/>
      <rect x="16" y="44" width="32" height="8" class="wall"/>
      <rect x="16" y="12" width="32" height="32" class="way"/>
      <!-- <circle cx="32" cy="32" r="20" class="way"/> -->
    </g>
    <g id="wallLeft">
      <rect x="8" y="20" width="8" height="32" class="shadow"/>
      <use href="#pilonShadow" transform="translate(10,22)"/>
    </g>
    <g id="doorLeft">
      <rect x="0" y="16" width="16" height="24" class="way"/>
      <rect x="0" y="40" width="16" height="8" class="wall"/>
      <path d="M16,40l0,8,-8,0z" class="shadow"/>
      <rect x="8" y="48" width="8" height="4" class="shadow"/>
      <path d="M18,39q-9,1,-18,1" class="rope"/>
      <path d="M18,39q-9,1,-18,1" class="ropemark"/>
      <path d="M18,11q-9,1,-18,1" class="rope"/>
      <path d="M18,11q-9,1,-18,1" class="ropemark"/>
      <!--<line x1="0" y1="40" x2="18" y2="39" class="rope"/>-->
    </g>
    <g id="doorRight">
      <rect x="48" y="16" width="16" height="24" class="way"/>
      <rect x="48" y="40" width="16" height="8" class="wall"/>
      <!--<line x1="64" y1="41" x2="48" y2="40" class="rope"/>-->
      <path d="M46,39q9,1,18,1" class="rope"/>
      <path d="M46,39q9,1,18,1" class="ropemark"/>
      <path d="M46,11q9,1,18,1" class="rope"/>
      <path d="M46,11q9,1,18,1" class="ropemark"/>
    </g>
    <g id="wallRight">
    </g>
    <g id="doorTop">
      <rect x="20" y="0" width="24" height="12" class="way"/>
      <rect x="12" y="0" width="8" height="12" class="shadow"/>
      <rect x="12" y="12" width="4" height="8" class="shadow"/>
      <line x1="18" y1="0" x2="18" y2="9" class="rope"/>
      <line x1="18" y1="0" x2="18" y2="9" class="ropemark"/>
      <line x1="46" y1="0" x2="46" y2="9" class="rope"/>
      <line x1="46" y1="0" x2="46" y2="9" class="ropemark"/>
    </g>
    <g id="wallTop">
      <path d="M46,11q-14,2,-28,0" class="rope"/>
      <path d="M46,11q-14,2,-28,0" class="ropemark"/>
    </g>
    <g id="doorBottom">
      <rect x="20" y="44" width="24" height="20" class="way"/>
      <path d="M20,44l0,8,-4,0,0,-4z" class="shadow"/>
      <rect x="12" y="52" width="8" height="12" class="shadow"/>
    </g>
    <g id="wallBottom">
      <path d="M46,39q-14,2,-28,0" class="rope"/>
      <path d="M46,39q-14,2,-28,0" class="ropemark"/>
    </g>
    <g id="decke">
      <g transform="translate(18,14)">
        <g id="pilon">
          <rect x="-2" y="-1.5" width="2" height="3" class="shadow"/>
          <circle cx="0" cy="0" r="1.75" class="pilon" transform="scale(1,.75)"/>
          <rect x="-1.75" y="-4" width="3.5" height="4" class="pilon"/>
          <circle cx="0" cy="0" r="1.75" class="pilon" transform="translate(0,-4) scale(1,.75)"/>
          <circle cx="0" cy="0" r="1.75" class="shadow" transform="translate(0,-4) scale(1,.75)"/>
        </g>
        <g transform="translate(0,-2.5)" class="ropeLeft">
          <g id="ropeSide">
            <line x1="0" y1="0" x2="0" y2="27" class="rope"/>
            <line x1="0" y1="0" x2="0" y2="27" class="ropemark"/>
          </g>
        </g>
      </g>
      <g transform="translate(18,42)">
        <use href="#pilon"/>
        <use href="#pilonShadow" transform="translate(-8,8)"/>
      </g>
      <g transform="translate(46,14)" class="shadow">
        <path d="M-2,-1.5l0,3,-3,0a1,1.5,180,1,1,0,-3z" class="shadow" id="pilonShadow"/>
        <use href="#pilon"/>
        <use href="#ropeSide" transform="translate(0,-2.5)" class="ropeRight"/>
      </g>
      <g transform="translate(46,42)">
        <use href="#pilon"/>
        <use href="#pilonShadow"/>
      </g>
      <g class="ropeBottom">
        <line x1="18" y1="39.5" x2="18" y2="64" class="rope"/>
        <line x1="18" y1="39.5" x2="18" y2="64" class="ropemark"/>
        <line x1="46" y1="39.5" x2="46" y2="64" class="rope"/>
        <line x1="46" y1="39.5" x2="46" y2="64" class="ropemark"/>
      </g>
    </g>
    <style id="colors">
      svg{--waybg-col:green;--ropeLeft:hidden;--ropeRight:visible;--ropeBottom:visible;}
      .boden{fill:url(#water);stroke:none;}
      .waterbg{fill:RoyalBlue;}
      .waterwaves{fill:none;stroke:rgba(255,255,255,.15);stroke-width:2;}
      .bodenc{fill:blue;stroke:none;}
      .way{fill:url(#tiles);stroke:none;}
      .waybg{fill:peru;stroke:none;}
      .waytile{fill:rgba(255,255,255,.05);}
      .wallbg{fill:FireBrick;stroke:none;}
      .wall{fill:url(#bricks);}
      .pilon{fill:Olive;}
      .ropeLeft{visibility:var(--ropeLeft);}
      .ropeRight{visibility:var(--ropeRight);}
      .ropeBottom{visibility:var(--ropeBottom);}
      .rope{stroke:Goldenrod;stroke-width:1.25;fill:none}      
      .ropemark{stroke:rgba(0,0,0,.2);stroke-width:1;fill:none;stroke-dasharray:.25 2}
      .wallLeft~.decke{--ropeLeft:visible;}
      .doorRight~.decke{--ropeRight:hidden;}
      .wallBottom~.decke{--ropeBottom:hidden;}
      .shadowline{stroke:rgba(0,0,0,.2);stroke-width:1;fill:none;}
      .shadow{fill:rgba(0,0,0,.1);stroke:none;}
    </style>
  </defs>
</svg>
