<svg width="320" height="320" viewBox="0 0 320 320" xmlns="http://www.w3.org/2000/svg">
  <defs>
    <pattern id="water" viewBox="0,0,16,16" width="8" height="8" patternUnits="userSpaceOnUse">
      <rect x="0" y="0" width="16" height="16" class="waterbg"/>
      <g class="waterwaves">
        <path d="M0,12s2,4,4,4,2,0,4,-4,2,-4,4,-4,2,0,4,4"/>
        <path d="M0,4s2,4,4,4,2,0,4,-4,2,-4,4,-4,2,0,4,4"/>
      </g>
    </pattern>
    <pattern id="tiles" viewBox="0,0,8,8" width="4" height="4" patternUnits="userSpaceOnUse">
      <rect x="0" y="0" width="8" height="8" class="waybg"/>
      <rect id="tile" x="1" y="1" width="6" height="6" rx="1" class="waytile"/>
    </pattern>
    <pattern id="bricks" viewBox="0,0,16,16" width="8" height="8" patternUnits="userSpaceOnUse">
      <rect x="0" y="0" width="16" height="16" class="wallbg"/>
      <g class="walldarkline">
        <line x1="0" y1="8" x2="16" y2="8"/>
        <line x1="0" y1="4" x2="16" y2="4"/>
        <line x1="0" y1="12" x2="16" y2="12"/>
        <line x1="0" y1="16" x2="16" y2="16"/>
        <line x1="8" y1="0" x2="8" y2="4"/>
        <line x1="8" y1="8" x2="8" y2="12"/>
        <line x1="4" y1="4" x2="4" y2="8"/>
        <line x1="4" y1="12" x2="4" y2="16"/>
        <line x1="12" y1="0" x2="12" y2="4"/>
        <line x1="12" y1="8" x2="12" y2="12"/>
        <line x1="16" y1="4" x2="16" y2="8"/>
        <line x1="16" y1="12" x2="16" y2="16"/>
      </g>
    </pattern>
    <g id="boden" class="boden">
      <rect x="0" y="0" width="64" height="64"/>
      <rect x="16" y="44" width="32" height="8" class="wall"/>
      <rect x="16" y="12" width="32" height="32" class="way"/>
      <!-- <circle cx="32" cy="32" r="20" class="way"/> -->
    </g>
    <g id="wallLeft">
      <rect x="8" y="20" width="8" height="32" class="walldark"/>
    </g>
    <g id="doorLeft">
      <rect x="0" y="16" width="20" height="24" class="way"/>
      <rect x="0" y="40" width="16" height="8" class="wall"/>
      <path d="M16,40l0,8,-8,0z" class="walldark"/>
      <rect x="8" y="48" width="8" height="4" class="walldark"/>
    </g>
    <g id="doorRight">
      <rect x="44" y="16" width="20" height="24" class="way"/>
      <rect x="48" y="40" width="16" height="8" class="wall"/>
    </g>
    <g id="doorTop">
      <rect x="20" y="0" width="24" height="40" class="way"/>
      <rect x="12" y="0" width="8" height="12" class="walldark"/>
      <rect x="12" y="12" width="4" height="8" class="walldark"/>
    </g>
    <g id="doorBottom">
      <rect x="20" y="20" width="24" height="44" class="way"/>
      <path d="M20,44l0,8,-4,0,0,-4z" class="walldark"/>
      <rect x="12" y="52" width="8" height="12" class="walldark"/>
    </g>
  </defs>
</svg>
