<svg width="640" height="640" viewBox="0 0 64 64" xmlns="http://www.w3.org/2000/svg">
  <defs>
    <style id="crate-styles">
      .crates{
      fill:sienna;
      .line{fill:none;stroke:rgba(0,0,0,.1);stroke-width:.1px;}
      .shadow{fill:rgba(0,0,0,.1);stroke:none;}
      .front{fill:Chocolate}
      }
    </style>
    <symbol id="grate1" viewBox="-4 -1 8 8" width="16" height="8" class="crates">
      <rect x="-1" y="2" width="1" height="4" class="shadow"/>
      <rect x="0" y="0" width="5" height="4" class="front"/>
      <line x1="0" y1="1" x2="5" y2="1" class="line"/>
      <line x1="0" y1="2" x2="5" y2="2" class="line"/>
      <line x1="0" y1="3" x2="5" y2="3" class="line"/>
      
      <rect x=".75" y="0" width=".25" height="4" class="shadow"/>
      <rect x="1" y="-.1" width=".75" height="4.1"/>
      <rect x="1" y="3.9" width=".75" height=".1" class="shadow"/>
      
      <rect x="3.1" y="0" width=".25" height="4" class="shadow"/>
      <rect x="3.35" y="-.1" width=".75" height="4.1"/>
      <rect x="3.35" y="3.9" width=".75" height=".1" class="shadow"/>
      
      <rect x="0" y="4" width="5" height="2"/>
      <line x1="0" y1="4.66" x2="5" y2="4.66" class="line"/>
      <line x1="0" y1="5.33" x2="5" y2="5.33" class="line"/>
    </symbol>
    <link rel="stylesheet" href="assetbase.css" xmlns="http://www.w3.org/1999/xhtml"/>
  </defs>
  <g>
    <use href="assetbase.svg#assetbase"/>
    <g id="usage">
      <use href="#grate1" transform="translate(30,20)"/>
    </g>
  </g>
</svg>
