<?xml version="1.0" encoding="utf-8"?>
<svg version="1.1" width="640" height="640" viewBox="0 0 64 64" xmlns="http://www.w3.org/2000/svg">
  <defs>
    <style id="playerBdefs">
      .playerB{
      fill:Wheat;
      stroke:Tan;
      stroke-width:.25px;
      .figure{
      fill:navy;
      }
      .augen{
      fill: darkblue;
      stroke: whitesmoke;
      }
      .haare{
      fill: darkred;
      stroke: crimson;
      }
      }
    </style>
    <symbol id="playerBTop" viewBox="-4 -4 8 8" width="8" height="8" class="playerB">
      <!--<rect x="-4" y="-4" width="8" height="8" style="fill:rgba(255,255,255,.15)"/>-->
      <g class="shirt" fill="skyblue">
        <rect x="-2.5" y=".75" width="5" height="1.5"/>
        <rect x="-3" y="1" width=".5" height="1.25"/>
        <rect x="2.5" y="1" width=".5" height="1.25"/>
      </g>
      <g class="skin">
        <path d="M-3,-3v3a1,1,90,0,0,1,1h4a1,1,90,0,0,1,-1v-3z"/>
      </g>
      <g class="hose" fill="green">
        <rect x="-2.5" y="2.25" width="5" height=".5"/>
      </g>
      <g class="shoe" fill="saddlebrown">
      <rect x="-2.5" y="2.75" width="2.5" height=".5"/>
      <rect x="0" y="2.75" width="2.5" height=".5"/>
      </g>
      <g class="haare">
        <path d="M-2.25,-.75h-1v-1.5a1,1,90,0,1,1,-1h4.5a1,1,90,0,1,1,1v1.5z"/>
      </g>
    </symbol>
    <symbol id="playerBBottom" viewBox="-4 -4 8 8" width="8" height="8" class="playerB">
      <!--<rect x="-4" y="-4" width="8" height="8" style="fill:rgba(255,255,255,.15)"/>-->
      <g class="shirt" fill="skyblue">
        <rect x="-2.5" y=".75" width="5" height="1.5"/>
        <rect x="-3" y="1" width=".5" height="1.25"/>
        <rect x="2.5" y="1" width=".5" height="1.25"/>
      </g>
      <g class="skin">
        <path d="M-3,-3v3a1,1,90,0,0,1,1h4a1,1,90,0,0,1,-1v-3z"/>
        <circle cx="0" cy="-1" r=".25"/>
        <rect x="-1" y="0" width="2" height=".25" rx=".25" fill="black" stroke-width=".05"/>
      </g>
      <g class="hose" fill="green">
        <rect x="-2.5" y="2.25" width="5" height=".5"/>
      </g>
      <g class="shoe" fill="saddlebrown">
      <rect x="-2.5" y="2.75" width="2.5" height=".5"/>
      <rect x="0" y="2.75" width="2.5" height=".5"/>
      </g>
      <g class="augen">
        <rect x="-1.5" y="-2" width=".5" height="1" rx=".25"/>
        <rect x="1" y="-2" width=".5" height="1" rx=".25"/>
      </g>
      <g class="haare">
        <path d="M-2.25,-.75h-1v-1.5a1,1,90,0,1,1,-1h4.5a1,1,90,0,1,1,1v1.5h-1v-1.5a.5,.5,90,0,0,-.5,-.5h-3.5a.5,.5,90,0,0,-.5,.5z"/>
      </g>
    </symbol>
    <symbol id="playerBLeft" viewBox="-4 -4 8 8" width="8" height="8" class="playerB">
      <!--<rect x="-4" y="-4" width="8" height="8" style="fill:rgba(255,255,255,.15)"/>-->
      <g class="shirt" fill="skyblue">
        <rect x="-1.5" y=".75" width="3" height="1.5"/>
        <rect x="-.5" y="1" width="1" height="1.25"/>
        <!--<rect x="2.5" y="1" width=".5" height="1.25"/>-->
      </g>
      <g class="skin">
        <path d="M-2,-3v4h3a1,1,90,0,0,1,-1v-3z"/>
        <circle cx="-2" cy="-1" r=".25"/>
        <rect x="-2" y="0" width="1.5" height=".25" rx=".25" fill="black" stroke-width=".05"/>
      </g>
      <g class="hose" fill="green">
        <rect x="-1.25" y="2.25" width="2.5" height=".5"/>
      </g>
      <g class="shoe" fill="saddlebrown">
      <rect x="-1.25" y="2.75" width="2.5" height=".5"/>
      <!--<rect x="0" y="2.75" width="2.5" height=".5"/>-->
      </g>
      <g class="augen">
        <rect x="-1" y="-2" width=".5" height="1" rx=".25"/>
        <!--<rect x="1" y="-2" width=".5" height="1" rx=".25"/>-->
      </g>
      <g class="haare">
        <path d="M-2.25,-3.25h3.5a1,1,90,0,1,1,1v1.5h-1.5v-1.5a.5,.5,90,0,0,-.5,-.5h-2.5z"/>
      </g>
    </symbol>
    <symbol id="playerB-nordM" viewBox="0 0 8 8" width="8" height="8" class="playerB">
      <use href="#playerBTop"/>
    </symbol>
    <symbol id="playerB-suedM" viewBox="0 0 8 8" width="8" height="8" class="playerB">
      <use href="#playerBBottom"/>
    </symbol>
    <symbol id="playerB-linksM" viewBox="0 0 8 8" width="8" height="8" class="playerB">
      <use href="#playerBLeft"/>
    </symbol>
    <symbol id="playerB-rechtsM" viewBox="0 0 8 8" width="8" height="8" class="playerB">
      <use href="#playerBLeft" transform="translate(8,0) scale(-1,1)"/>
    </symbol>
    <link rel="stylesheet" href="assetbase.css" xmlns="http://www.w3.org/1999/xhtml"/>
  </defs>
  <g>
    <use href="assetbase.svg#assetbaseT"/>
    <g id="usage">
      <use href="#playerB-nordM" transform="translate(28,16)"/>
      <use href="#playerB-suedM" transform="translate(28,24)"/>
      <use href="#playerB-linksM" transform="translate(20,24)"/>
      <use href="#playerB-rechtsM" transform="translate(36,24)"/>
    </g>
  </g>
</svg>