<svg width="320" height="320" viewBox="0 0 64 64" xmlns="http://www.w3.org/2000/svg">
  <defs>
    <style id="puddle-styles">
      .puddle{fill:SteelBlue;stroke:DodgerBlue;opacity:.25;stroke-width:3}
    </style>
    <symbol id="puddle1" viewBox="0 0 100 100" width="8" height="8">
      <path class="puddle"
            d="M27,-32.4C32.7,-27.3,33.6,-16.7,32.8,-7.8C32,1.1,29.5,8.4,26.3,16.4C23.2,24.5,19.3,33.4,13,35.6C6.8,37.8,-1.9,33.4,-10.9,30.1C-19.9,26.7,-29.4,24.6,-35.3,18.4C-41.2,12.2,-43.6,2.1,-41.8,-7.3C-40,-16.6,-34.1,-25,-26.4,-29.8C-18.7,-34.6,-9.4,-35.7,0.6,-36.5C10.6,-37.2,21.2,-37.6,27,-32.4Z" width="100%" height="100%" transform="translate(50 50)" style="transition: 0.3s;" stroke-width="0">
      </path>              
    </symbol>
    <symbol id="puddle2" viewBox="0 0 100 100" width="8" height="8">
      <path class="puddle"
            d="M21.3,-23.5C28.5,-19.4,35.7,-13.5,37.5,-6.2C39.3,1.2,35.7,9.9,31.2,18.4C26.8,26.9,21.3,35.3,13.6,38.7C5.8,42.2,-4.3,40.8,-11.1,35.9C-18,31.1,-21.6,22.9,-24.7,15.3C-27.7,7.8,-30.1,1,-29.1,-5.2C-28.1,-11.4,-23.6,-17.1,-18.2,-21.5C-12.8,-25.9,-6.4,-29,0.4,-29.5C7.1,-29.9,14.2,-27.6,21.3,-23.5Z" width="100%" height="100%" transform="translate(50 50)">
      </path>              
    </symbol>      
    <symbol id="puddle3" viewBox="0 0 100 100" width="8" height="8">
      <path class="puddle"
              d="M22.3,-23.6C28.5,-21.3,32.9,-14,31.7,-7.6C30.4,-1.2,23.5,4.2,19.1,10.4C14.7,16.6,13,23.8,8.3,27.5C3.6,31.2,-4,31.5,-11,29.3C-18.1,27.2,-24.6,22.6,-26,16.7C-27.3,10.9,-23.4,3.7,-22.1,-3.9C-20.8,-11.6,-22.1,-19.8,-18.9,-22.6C-15.6,-25.4,-7.8,-22.9,0.1,-23C8,-23.1,16.1,-25.9,22.3,-23.6Z" width="100%" height="100%" transform="translate(50 50)" style="transition: 0.3s;" stroke-width="0">
      </path>              
    </symbol>
    <symbol id="puddle4" viewBox="0 0 100 100" width="8" height="8">
      <path class="puddle"
              d="M15.7,-23.4C18.8,-16.1,18.8,-9.7,22.7,-1.9C26.5,5.9,34.3,15,32.1,18.3C30,21.6,17.9,19,9,20.2C0.1,21.4,-5.7,26.4,-9.2,25.2C-12.7,23.9,-13.9,16.3,-15.1,10.6C-16.2,4.8,-17.3,0.8,-17.6,-4.1C-17.9,-8.9,-17.5,-14.6,-14.4,-21.9C-11.4,-29.2,-5.7,-38.1,0.3,-38.5C6.3,-38.8,12.6,-30.6,15.7,-23.4Z" width="100%" height="100%" transform="translate(50 50)" style="transition: 0.3s;" stroke-width="0">
      </path>              
    </symbol>
    <link rel="stylesheet" href="assetbase.css" xmlns="http://www.w3.org/1999/xhtml"/>
  </defs>
  <g>
    <use href="assetbase.svg#assetbase"/>
    <g id="usage">
      <use href="#puddle1" transform="translate(20,16)"/>
      <use href="#puddle2" transform="translate(36,16)"/>
      <use href="#puddle3" transform="translate(20,32)"/>
      <use href="#puddle4" transform="translate(36,32)"/>
    </g>
  </g>
</svg>