<?xml version="1.0" encoding="utf-8"?>
<!--
Copyright 2024 nigjo.

Licensed under the Apache License, Version 2.0 (the "License");
you may not use this file except in compliance with the License.
You may obtain a copy of the License at

     http://www.apache.org/licenses/LICENSE-2.0

Unless required by applicable law or agreed to in writing, software
distributed under the License is distributed on an "AS IS" BASIS,
WITHOUT WARRANTIES OR CONDITIONS OF ANY KIND, either express or implied.
See the License for the specific language governing permissions and
limitations under the License.
-->
<svg width="512" height="512" viewBox="0 0 64 64" xmlns="http://www.w3.org/2000/svg">
  <defs>
    <style id="rescue-styles">
      .rescue{
      fill:Crimson;
      .mark{
      fill:Linen;
      }
      .standline{
      stroke-width:.05px;
      stroke:indigo;
      fill:none;
      }
      .stand{
      fill:saddlebrown;
      }
      .shadow{fill:rgba(0,0,0,.1);stroke:none;}
      }
    </style>
    <symbol id="rescue-stand" class="rescue" width="10" height="10" viewBox="-2 -4.5 10 10">
      <rect class="shadow" x="-2" y="4" width="6" height="1"/>
      <rect class="shadow" x="-1.5" y="5" width="3" height=".5"/>
      <rect class="stand" x="3.5" y="-4" width="1" height="9"/>
      <use href="#rescue-ring" transform="translate(1.33,-4.5)" />
      <g transform="translate(3.5,-3.85)">
        <rect class="stand" x="0" y="0" width="1" height=".5"/>
        <polyline points="0,0 0,.5 1,.5 1,0" class="standline"/>
      </g>
    </symbol>
    <symbol id="rescue-ringOnly" class="rescue" width="10" height="10" viewBox="-1 0 10 10">
      <g transform="translate(-.5,0) scale(.66)" class="shadow">
        <path id="rescueRingShadow"
                d="M4,0a4,4,180,0,1,0,8v-1.5a2.5,2.5,180,0,0,0,-5z"/>
        <use href="#rescueRingShadow" transform="translate(8,0) scale(-1,1)"/>
      </g>
      <g id="rescue-ring" class="rescue">
        <g transform="scale(.66) rotate(-45,4,4)">
          <!--<circle cx="4" cy="4" r="4" stroke="none" style="fill:cyan"/>-->
          <path id="rescueRingPart" d="M4,0a4,4,90,0,1,4,4h-1.5a2.5,2.5,90,0,0,-2.5,-2.5z"/>
          <use href="#rescueRingPart" transform="translate(4,4) rotate(90,4,0)" class="mark"/>
          <use href="#rescueRingPart" transform="translate(0,8) rotate(180,4,0)"/>
          <use href="#rescueRingPart" transform="translate(-4,4) rotate(-90,4,0)" class="mark"/>
        </g>
      </g>
    </symbol>
    <link rel="stylesheet" href="assetbase.css" xmlns="http://www.w3.org/1999/xhtml"/>
  </defs>
  <g>
    <use href="assetbase.svg#assetbase"/>
    <g id="usage">
      <use href="#rescue-stand" transform="translate(17,10)"/>
      <use href="#rescue-stand" transform="translate(35,10)"/>
      <use href="#rescue-ringOnly" transform="translate(19,32)"/>
      <use href="#rescue-ringOnly" transform="translate(36,32)"/>
    </g>
  </g>
</svg>
