<?xml version="1.0" encoding="utf-8"?>
<!--
Copyright 2024 nigjo.

Licensed under the Apache License, Version 2.0 (the "License");
you may not use this file except in compliance with the License.
You may obtain a copy of the License at

     http://www.apache.org/licenses/LICENSE-2.0

Unless required by applicable law or agreed to in writing, software
distributed under the License is distributed on an "AS IS" BASIS,
WITHOUT WARRANTIES OR CONDITIONS OF ANY KIND, either express or implied.
See the License for the specific language governing permissions and
limitations under the License.
-->
<svg width="640" height="640" viewBox="0 0 64 64" xmlns="http://www.w3.org/2000/svg">
  <defs>
    <style id="stone-styles">
      .stones{
      fill:#3f3a3a;
        &amp;.stone{
      /*fill:url(#stonelight);*/
      fill:#3f3a3a;
      stroke:none;
      stroke-width:.05px;
      }
      .stonesButtom{fill:url(#stonesBgBottom);}
      .stonesRight{fill:url(#stonesBgRight);}
      .stonesLeft{fill:url(#stonesBgLeft);}
      .shadow{fill:rgba(0,0,0,.1);stroke:none;}
      .shadowline{stroke:rgba(0,0,0,.2);stroke-width:.3;fill:none;stroke-linecap:round;}
      .light{fill:rgba(255,255,255,.1);stroke:none;}
      .lightline{stroke:rgba(255,255,255,.1);stroke-width:.3;fill:none;stroke-linecap:round;}
      .mark{stroke:red;opacity:.5;}
      }
    </style>
    <radialGradient id="stonelight" cx="70%" cy="50%">
      <stop offset="10%" stop-color="gray" />
      <stop offset="100%" stop-color="#3f3a3a" />
    </radialGradient>
    <g id="stone1b" class="stones stone">
      <use href="#stone1bstone" x="-.5" class="shadow"/>
      <path id="stone1bstone" d="M-1,-2H0.5L 1.2,-1.5 2,0 2,0.6 1,2 -1.1,1.5 -1.5,1 -2,-0.5Z"/>
      <polyline points="0.45,-1.85 1.08,-1.4 1.85,0.05 1.85,0.55 .95,1.8" class="lightline"/>
      <polyline points="-1.03,1.35 -1.35,.95 -1.825,-0.475 -.925,-1.85" class="shadowline"/>
    </g>
    <g id="stone2b" class="stones stone">
      <use href="#stone2bstone" x="-.5" class="shadow"/>
      <path id="stone2bstone" d="M-0.6,-1 L0.3,-2 0.9,-2 1.6,-0.4 1.7,0.4 0.5,2 -0.75,1.75 -2,0.2v-0.7z"/>
      <polyline points="0.8,-1.85 1.45,-0.4 1.55,0.35 0.45,1.825" class="lightline"/>
      <polyline points="-0.675,1.6 -1.85,0.15 -1.85,-0.4 -0.5,-.875 0.375,-1.85" class="shadowline"/>
    </g>
    <g id="stone3b" class="stones stone">
      <use href="#stone3bstone" x="-.5" class="shadow"/>
      <path id="stone3bstone" d="M 0,-2 1.2,-1.7 1.7,-0.4 0.9,0.4 0.5,1.2h -0.9l -0.8,-1.3v -1z"/>
      <polyline points=" 1.09,-1.575 1.525,-0.425 0.75,0.35 0.41,1.05" class="lightline"/>
      <polyline points="-.325,1.05 -1.05,-.15 -1.05,-1 0.08,-1.825" class="shadowline"/>
    </g>
    <pattern id="stonesBgRight" patternUnits="userSpaceOnUse"
             viewBox="-1 0 8 16" width="8" height="16">
      <rect x="4" y="0" width="4" height="16" class="stones"/>
      <g class="stones stone">
        <g id="stonesBgRightTop">
          <use href="#stone3b" x="4" y="-1"/>
          <use href="#stone1b" x="7" y="1"/>
          <!--<use href="#stone1b" x="5" y="3"/>-->
        </g>
        
        <g id="stonesBgRightBottom">
          <use href="#stone2b" x="7" y="3"/>
          <use href="#stone1b" x="5" y="3"/>
          <use href="#stone1b" x="6" y="5"/>
        </g>
        <use href="#stone1b" x="4.5" y="7"/>
        <use href="#stone1b" x="7" y="9"/>
        <use href="#stone2b" x="5" y="9"/>
        <use href="#stone1b" x="5" y="11"/>
        <use href="#stone1b" x="6" y="13"/>

        <use href="#stone3b" x="4" y="15"/>
        <use href="#stone1b" x="7" y="17"/>
        <use href="#stone2b" x="7" y="14"/>
      </g>
    </pattern>
    <pattern id="stonesBgLeft" patternUnits="userSpaceOnUse"
             viewBox="1 0 8 16" width="8" height="16">
      <rect x="0" y="0" width="4" height="16" class="stones"/>
      <g class="stones stone">
        <use href="#stone1b" x="1.5" y="-1.5"/>
        <g id="stonesBgLeftTop">
          <use href="#stone2b" x="3.75" y="-.25"/>
          <use href="#stone1b" x="2.5" y="1.5"/>
        </g>

        <use href="#stone3b" x="3.5" y="3"/>
        <g id="stonesBgLeftBottom">
          <use href="#stone3b" x="1.75" y="4"/>
          <use href="#stone2b" x="3.5" y="4.5"/>
        </g>
        <use href="#stone1b" x="3.25" y="7"/>
        <use href="#stone2b" x="1" y="7"/>
        <use href="#stone1b" x="2" y="9"/>
        <use href="#stone3b" x="4" y="11"/>
        <use href="#stone1b" x="2" y="12"/>
        
        <use href="#stone2b" x="3.5" y="14"/>
        <use href="#stone2b" x="3.75" y="15.75"/>
        <use href="#stone1b" x="1.5" y="14.5"/>
        <use href="#stone1b" x="2.5" y="17.5"/>
      </g>
    </pattern>
    <pattern id="stonesBgBottom" patternUnits="userSpaceOnUse"
             viewBox="0 -1.5 16 8" width="16" height="8">
      <rect x="0" y="4" width="16" height="4" class="stones"/>
      <!--<rect x="0" y="0" width="16" height="8" style="fill:none;stroke:red;stroke-width:.25px;"/>-->
      <g class="stones stone">
        <use href="#stone1b" x="-1.5" y="4"/>
        <g id="stonesBgBottomEdge">
        <use href="#stone2b" x="0" y="6.5"/>
        <use href="#stone1b" x="1" y="5"/>
        </g>
        <use href="#stone2b" x="2" y="7"/>
        <use href="#stone1b" x="4" y="4.5"/>
        <use href="#stone2b" x="5" y="6.5"/>
        <use href="#stone1b" x="8" y="4"/>
        <use href="#stone2b" x="6" y="3.5"/>
        <use href="#stone1b" x="7.5" y="6.5"/>
        <use href="#stone1b" x="9" y="5.5"/>
        <use href="#stone2b" x="11" y="3.75"/>
        <use href="#stone1b" x="11.5" y="6.5"/>
        <use href="#stone2b" x="13.75" y="7.5"/>
        <use href="#stone1b" x="13" y="5.5"/>
      
        <use href="#stone1b" x="14.5" y="4"/>
        <use href="#stone2b" x="16" y="6.5"/>
        <use href="#stone1b" x="17" y="5"/>
      </g>
    </pattern>
    <symbol id="stonesBottom" viewBox="0 0 64 8" width="64" height="8" class="stones">
      <rect x="0" y="0" width="64" height="8" class="stonesButtom"/>
    </symbol>
    <symbol id="stonesBottomGapLR" viewBox="0 0 64 8" width="64" height="8" class="stones">
      <use href="#stonesBgBottomEdge" x="16" y="1.5"/>
      <rect x="16" y="0" width="32" height="8" class="stonesButtom"/>
      <use href="#stonesBgBottomEdge" x="48" y="1.5"/>
    </symbol>
    <symbol id="stonesBottomGapL" viewBox="0 0 64 8" width="64" height="8" class="stones">
      <use href="#stonesBgBottomEdge" x="16" y="1.5"/>
      <rect x="16" y="0" width="48" height="8" class="stonesButtom"/>
    </symbol>
    <symbol id="stonesBottomGapR" viewBox="0 0 64 8" width="64" height="8" class="stones">
      <rect x="0" y="0" width="48" height="8" class="stonesButtom"/>
      <use href="#stonesBgBottomEdge" x="48" y="1.5"/>
    </symbol>
    <symbol id="stonesRight" viewBox="0 0 8 64" width="8" height="64" class="stones">
      <rect x="0" y="0" width="8" height="64" class="stonesRight"/>
    </symbol>
    <symbol id="stonesRightGapB" viewBox="0 0 8 64" width="8" height="64" class="stones">
      <rect x="0" y="0" width="8" height="48" class="stonesRight"/>
      <use href="#stonesBgRightTop" x="1" y="48"/>
      <!--<rect x="0" y="32" width="8" height="32" class="stonesRight"/>-->
    </symbol>
    <symbol id="stonesRightGapT" viewBox="0 0 8 64" width="8" height="64" class="stones">
      <use href="#stonesBgRightBottom" x="1" y="16"/>
      <rect x="0" y="20" width="8" height="44" class="stonesRight"/>
      <!--<rect x="0" y="32" width="8" height="32" class="stonesRight"/>-->
    </symbol>
    <symbol id="stonesRightGapTB" viewBox="0 0 8 64" width="8" height="64" class="stones">
      <use href="#stonesBgRightBottom" x="1" y="16"/>
      <rect x="0" y="21" width="8" height="27" class="stonesRight"/>
      <use href="#stonesBgRightTop" x="1" y="48"/>
      <!--<rect x="0" y="32" width="8" height="32" class="stonesRight"/>-->
    </symbol>
    <symbol id="stonesLeft" viewBox="0 0 8 64" width="8" height="64" class="stones">
      <rect x="0" y="0" width="8" height="64" class="stonesLeft"/>
    </symbol>
    <symbol id="stonesLeftGapTB" viewBox="0 0 8 64" width="8" height="64" class="stones">
      <use href="#stonesBgLeftBottom" x="-1" y="16"/>
      <rect x="0" y="20" width="8" height="29" class="stonesLeft"/>
      <use href="#stonesBgLeftTop" x="-1" y="48"/>
    </symbol>
    <symbol id="stonesLeftGapB" viewBox="0 0 8 64" width="8" height="64" class="stones">
      <rect x="0" y="" width="8" height="49" class="stonesLeft"/>
      <use href="#stonesBgLeftTop" x="-1" y="48"/>
    </symbol>
    <symbol id="stonesLeftGapT" viewBox="0 0 8 64" width="8" height="64" class="stones">
      <use href="#stonesBgLeftBottom" x="-1" y="16"/>
      <rect x="0" y="20" width="8" height="44" class="stonesLeft"/>
    </symbol>
    <link rel="stylesheet" href="assetbase.css" xmlns="http://www.w3.org/1999/xhtml"/>
  </defs>
  <g>
    <use href="assetbase.svg#assetbaseT"/>
    <g id="usage">
      <use href="#stone1b" transform="translate(24,32) scale(2)"/>
      <use href="#stone2b" transform="translate(32,24) scale(2)"/>
      <use href="#stone3b" transform="translate(40,32) scale(2)"/>
      <!--<use href="#stonesLeft" transform="translate(0,0)"/>-->
      <rect x="0" y="32" width="8" height="16" style="fill:none;stroke:red;stroke-width:.25px;"/>
      <use href="#stonesLeftGapB" transform="translate(0,0)"/>
      <rect x="16" y="56" width="16" height="32" style="fill:none;stroke:red;stroke-width:.25px;"/>
      <use href="#stonesBottomGapLR" transform="translate(0,56)"/>
      <rect x="56" y="32" width="8" height="16" style="fill:none;stroke:red;stroke-width:.25px;"/>
      <use href="#stonesRightGapB" transform="translate(56,0)"/>
    </g>
  </g>
</svg>
