<svg width="512" height="512" viewBox="0 0 64 64" xmlns="http://www.w3.org/2000/svg">
  <defs>
    <symbol id="vines1">
      <!--<rect x="0" y="0" width="32" height="8"/>-->
      <g transform="translate(7,0)">
        <g id="vine-string1" class="vine">
          <polyline points="0,0 0,2 1,5 0.5,8" class="wood"/>
          <g transform="translate(0,2) rotate(23)">
            <g id="vine-leaf">
              <path d="M0,0a1,.5,180,1,1,2,0a1,.5,180,1,1,-2,0z"/>
            </g>
          </g>
          <use href="#vine-leaf" transform="translate(0,2) rotate(157)"/>
          <use href="#vine-leaf" transform="translate(1,5) rotate(23)"/>
          <use href="#vine-leaf" transform="translate(1,5) rotate(157)"/>
        </g>
      </g>
      <g transform="translate(11,0)">
        <g id="vine-string2" class="vine">
          <polyline points="0,0 0,1.5 -1,3.5 0,6 -.5,8" class="wood"/>
          <use href="#vine-leaf" transform="translate(0,1.5) rotate(23)"/>
          <use href="#vine-leaf" transform="translate(0,1.5) rotate(157)"/>
          <use href="#vine-leaf" transform="translate(-1,3.5) rotate(23)"/>
          <use href="#vine-leaf" transform="translate(-1,3.5) rotate(157)"/>
          <use href="#vine-leaf" transform="translate(0,6) rotate(23)"/>
          <use href="#vine-leaf" transform="translate(0,6) rotate(157)"/>
        </g>
      </g>
      <use href="#vine-string1" transform="translate(21,0)"/>
      <use href="#vine-string2" transform="translate(25,0)"/>
    </symbol>
    <symbol id="vines2">
      <use href="#vine-string2" transform="translate(4,0)"/>
      <use href="#vine-string1" transform="translate(11,0)"/>
      <use href="#vine-string2" transform="translate(19,0)"/>
      <use href="#vine-string1" transform="translate(26,0)"/>
    </symbol>
    <symbol id="vines3">
      <use href="#vine-string1" transform="translate(5,0)"/>
      <use href="#vine-string2" transform="translate(12,0)"/>
      <use href="#vine-string1" transform="translate(17,0)"/>
      <use href="#vine-string2" transform="translate(27,0)"/>
    </symbol>
    <symbol id="vinesSingle">
      <use href="#vine-string2" transform="translate(3,0)"/>
      <use href="#vine-string1" transform="translate(6,0)"/>
    </symbol>
    <style id="vinestyles">
      .vine{
        fill:darkgreen;
        stroke:green;
        stroke-width:.25px;
        .wood{
          fill:none;
          stroke:SaddleBrown;
          stroke-width:1px;
        }
      }
    </style>
    <link rel="stylesheet" href="assetbase.css" xmlns="http://www.w3.org/1999/xhtml"/>
  </defs>
  <g>
    <use href="assetbase.svg#assetbaseR"/>
    <g transform="translate(16,44)">
      <use href="#vines1"/>
    </g>
  </g>
</svg>
